<?xml version="1.0" encoding="utf-8" standalone="no"?>
<!DOCTYPE svg PUBLIC "-//W3C//DTD SVG 1.1//EN"
  "http://www.w3.org/Graphics/SVG/1.1/DTD/svg11.dtd">
<!-- Created with matplotlib (https://matplotlib.org/) -->
<svg height="216pt" version="1.1" viewBox="0 0 720 216" width="720pt" xmlns="http://www.w3.org/2000/svg" xmlns:xlink="http://www.w3.org/1999/xlink">
 <metadata>
  <rdf:RDF xmlns:cc="http://creativecommons.org/ns#" xmlns:dc="http://purl.org/dc/elements/1.1/" xmlns:rdf="http://www.w3.org/1999/02/22-rdf-syntax-ns#">
   <cc:Work>
    <dc:type rdf:resource="http://purl.org/dc/dcmitype/StillImage"/>
    <dc:date>2020-10-21T10:43:27.048352</dc:date>
    <dc:format>image/svg+xml</dc:format>
    <dc:creator>
     <cc:Agent>
      <dc:title>Matplotlib v3.3.2, https://matplotlib.org/</dc:title>
     </cc:Agent>
    </dc:creator>
   </cc:Work>
  </rdf:RDF>
 </metadata>
 <defs>
  <style type="text/css">*{stroke-linecap:butt;stroke-linejoin:round;}</style>
 </defs>
 <g id="figure_1">
  <g id="patch_1">
   <path d="M 0 216 
L 720 216 
L 720 0 
L 0 0 
z
" style="fill:#ffffff;"/>
  </g>
  <g id="axes_1">
   <g id="line2d_1">
    <path clip-path="url(#p51a04b3d0b)" d="M 90 177.12 
L 648 177.12 
" style="fill:none;stroke:#000000;stroke-linecap:square;stroke-width:1.5;"/>
   </g>
   <g id="line2d_2">
    <path clip-path="url(#p51a04b3d0b)" d="M 255.006352 86.4 
L 255.006352 177.12 
" style="fill:none;stroke:#000000;stroke-linecap:square;stroke-width:0.5;"/>
   </g>
   <g id="line2d_3">
    <path clip-path="url(#p51a04b3d0b)" d="M 498.692389 116.64 
L 498.692389 177.12 
" style="fill:none;stroke:#000000;stroke-linecap:square;stroke-width:0.5;"/>
   </g>
   <g id="line2d_4">
    <path clip-path="url(#p51a04b3d0b)" d="M 437.210211 146.88 
L 437.210211 177.12 
" style="fill:none;stroke:#000000;stroke-linecap:square;stroke-width:0.5;"/>
   </g>
   <g id="line2d_5">
    <path clip-path="url(#p51a04b3d0b)" d="M 306.095636 116.64 
L 306.095636 146.88 
" style="fill:none;stroke:#000000;stroke-linecap:square;stroke-width:0.5;"/>
   </g>
   <g id="line2d_6">
    <path clip-path="url(#p51a04b3d0b)" d="M 546.390307 56.16 
L 546.390307 146.88 
" style="fill:none;stroke:#000000;stroke-linecap:square;stroke-width:0.5;"/>
   </g>
   <g id="line2d_7">
    <path clip-path="url(#p51a04b3d0b)" d="M 378.791201 56.16 
L 378.791201 177.12 
" style="fill:none;stroke:#000000;stroke-linecap:square;stroke-width:0.5;"/>
   </g>
   <g id="line2d_8">
    <path clip-path="url(#p51a04b3d0b)" d="M 570.950359 86.4 
L 570.950359 177.12 
" style="fill:none;stroke:#000000;stroke-linecap:square;stroke-width:0.5;"/>
   </g>
   <g id="line2d_9">
    <path clip-path="url(#p51a04b3d0b)" d="M 622.477238 116.64 
L 622.477238 177.12 
" style="fill:none;stroke:#000000;stroke-linecap:square;stroke-width:0.5;"/>
   </g>
   <g id="line2d_10">
    <path clip-path="url(#p51a04b3d0b)" d="M 406.195624 86.4 
L 406.195624 177.12 
" style="fill:none;stroke:#000000;stroke-linecap:square;stroke-width:0.5;"/>
   </g>
   <g id="patch_2">
    <path clip-path="url(#p51a04b3d0b)" d="M 224.812257 170.12 
Q 250.80638 170.12 276.800503 170.12 
L 276.800503 170.12 
Q 281.000475 173.62 285.200447 177.12 
Q 281.000475 180.62 276.800503 184.12 
L 276.800503 184.12 
Q 250.80638 184.12 224.812257 184.12 
L 224.812257 170.12 
z
" style="fill:#f7f7ef;stroke:#000000;stroke-linecap:round;"/>
   </g>
   <g id="patch_3">
    <path clip-path="url(#p51a04b3d0b)" d="M 470.303376 170.12 
Q 494.49399 170.12 518.684603 170.12 
L 518.684603 170.12 
Q 522.883003 173.62 527.081402 177.12 
Q 522.883003 180.62 518.684603 184.12 
L 518.684603 184.12 
Q 494.49399 184.12 470.303376 184.12 
L 470.303376 170.12 
z
" style="fill:#ccffee;stroke:#000000;stroke-linecap:round;"/>
   </g>
   <g id="patch_4">
    <path clip-path="url(#p51a04b3d0b)" d="M 89.923421 170.12 
Q 112.254026 170.12 134.584631 170.12 
L 134.584631 170.12 
Q 138.783258 173.62 142.981884 177.12 
Q 138.783258 180.62 134.584631 184.12 
L 134.584631 184.12 
Q 112.254026 184.12 89.923421 184.12 
L 89.923421 170.12 
z
" style="fill:#f7f7ef;stroke:#000000;stroke-linecap:round;"/>
   </g>
   <g id="patch_5">
    <path clip-path="url(#p51a04b3d0b)" d="M 414.072344 170.12 
Q 433.008846 170.12 451.945348 170.12 
L 451.945348 170.12 
Q 456.146712 173.62 460.348077 177.12 
Q 456.146712 180.62 451.945348 184.12 
L 451.945348 184.12 
Q 433.008846 184.12 414.072344 184.12 
L 414.072344 170.12 
z
" style="fill:#f7f7ef;stroke:#000000;stroke-linecap:round;"/>
   </g>
   <g id="patch_6">
    <path clip-path="url(#p51a04b3d0b)" d="M 284.762851 139.88 
Q 301.896525 139.88 319.030199 139.88 
L 319.030199 139.88 
Q 323.229309 143.38 327.42842 146.88 
Q 323.229309 150.38 319.030199 153.88 
L 319.030199 153.88 
Q 301.896525 153.88 284.762851 153.88 
L 284.762851 139.88 
z
" style="fill:#f7f7ef;stroke:#000000;stroke-linecap:round;"/>
   </g>
   <g id="patch_7">
    <path clip-path="url(#p51a04b3d0b)" d="M 525.221621 139.88 
Q 542.189904 139.88 559.158188 139.88 
L 559.158188 139.88 
Q 563.35859 143.38 567.558993 146.88 
Q 563.35859 150.38 559.158188 153.88 
L 559.158188 153.88 
Q 542.189904 153.88 525.221621 153.88 
L 525.221621 139.88 
z
" style="fill:#ccddff;stroke:#000000;stroke-linecap:round;"/>
   </g>
   <g id="patch_8">
    <path clip-path="url(#p51a04b3d0b)" d="M 358.935302 170.12 
Q 374.590728 170.12 390.246155 170.12 
L 390.246155 170.12 
Q 394.446628 173.62 398.6471 177.12 
Q 394.446628 180.62 390.246155 184.12 
L 390.246155 184.12 
Q 374.590728 184.12 358.935302 184.12 
L 358.935302 170.12 
z
" style="fill:#f5d5cb;stroke:#000000;stroke-linecap:round;"/>
   </g>
   <g id="patch_9">
    <path clip-path="url(#p51a04b3d0b)" d="M 552.243148 170.12 
Q 566.750827 170.12 581.258507 170.12 
L 581.258507 170.12 
Q 585.458038 173.62 589.65757 177.12 
Q 585.458038 180.62 581.258507 184.12 
L 581.258507 184.12 
Q 566.750827 184.12 552.243148 184.12 
L 552.243148 170.12 
z
" style="fill:#ccddff;stroke:#000000;stroke-linecap:round;"/>
   </g>
   <g id="patch_10">
    <path clip-path="url(#p51a04b3d0b)" d="M 161.579697 170.12 
Q 173.95552 170.12 186.331343 170.12 
L 186.331343 170.12 
Q 190.529452 173.62 194.727561 177.12 
Q 190.529452 180.62 186.331343 184.12 
L 186.331343 184.12 
Q 173.95552 184.12 161.579697 184.12 
L 161.579697 170.12 
z
" style="fill:#f7f7ef;stroke:#000000;stroke-linecap:round;"/>
   </g>
   <g id="patch_11">
    <path clip-path="url(#p51a04b3d0b)" d="M 606.067404 170.12 
Q 618.276625 170.12 630.485846 170.12 
L 630.485846 170.12 
Q 634.686459 173.62 638.887072 177.12 
Q 634.686459 180.62 630.485846 184.12 
L 630.485846 184.12 
Q 618.276625 184.12 606.067404 184.12 
L 606.067404 170.12 
z
" style="fill:#ff9aa2;stroke:#000000;stroke-linecap:round;"/>
   </g>
   <g id="patch_12">
    <path clip-path="url(#p51a04b3d0b)" d="M 217.154335 153.88 
Q 206.748092 153.88 196.34185 153.88 
L 196.34185 153.88 
Q 192.14334 150.38 187.94483 146.88 
Q 192.14334 143.38 196.34185 139.88 
L 196.34185 139.88 
Q 206.748092 139.88 217.154335 139.88 
L 217.154335 153.88 
z
" style="fill:#f7f7ef;stroke:#000000;stroke-linecap:round;"/>
   </g>
   <g id="patch_13">
    <path clip-path="url(#p51a04b3d0b)" d="M 335.852135 139.88 
Q 343.63012 139.88 351.408105 139.88 
L 351.408105 139.88 
Q 355.609299 143.38 359.810493 146.88 
Q 355.609299 150.38 351.408105 153.88 
L 351.408105 153.88 
Q 343.63012 153.88 335.852135 153.88 
L 335.852135 139.88 
z
" style="fill:#f7f7ef;stroke:#000000;stroke-linecap:round;"/>
   </g>
   <g id="patch_14">
    <path clip-path="url(#p51a04b3d0b)" d="M 584.844018 139.88 
Q 591.3113 139.88 597.778581 139.88 
L 597.778581 139.88 
Q 601.977692 143.38 606.176803 146.88 
Q 601.977692 150.38 597.778581 153.88 
L 597.778581 153.88 
Q 591.3113 153.88 584.844018 153.88 
L 584.844018 139.88 
z
" style="fill:#f7f7ef;stroke:#000000;stroke-linecap:round;"/>
   </g>
   <g id="patch_15">
    <path clip-path="url(#p51a04b3d0b)" d="M 141.4503 139.88 
Q 147.259325 139.88 153.06835 139.88 
L 153.06835 139.88 
Q 157.269324 143.38 161.470298 146.88 
Q 157.269324 150.38 153.06835 153.88 
L 153.06835 153.88 
Q 147.259325 153.88 141.4503 153.88 
L 141.4503 139.88 
z
" style="fill:#f7f7ef;stroke:#000000;stroke-linecap:round;"/>
   </g>
   <g id="patch_16">
    <path clip-path="url(#p51a04b3d0b)" d="M 194.946359 170.12 
Q 199.933731 170.12 204.921103 170.12 
L 204.921103 170.12 
Q 209.123238 173.62 213.325373 177.12 
Q 209.123238 180.62 204.921103 184.12 
L 204.921103 184.12 
Q 199.933731 184.12 194.946359 184.12 
L 194.946359 170.12 
z
" style="fill:#f7f7ef;stroke:#000000;stroke-linecap:round;"/>
   </g>
   <g id="patch_17">
    <path clip-path="url(#p51a04b3d0b)" d="M 399.63169 170.12 
Q 401.995412 170.12 404.359133 170.12 
L 404.359133 170.12 
Q 408.559345 173.62 412.759558 177.12 
Q 408.559345 180.62 404.359133 184.12 
L 404.359133 184.12 
Q 401.995412 184.12 399.63169 184.12 
L 399.63169 170.12 
z
" style="fill:#f5d5cb;stroke:#000000;stroke-linecap:round;"/>
   </g>
   <g id="patch_18">
    <path clip-path="url(#p51a04b3d0b)" d="M 638.449477 139.88 
Q 643.260678 139.88 648.071878 139.88 
L 648.071878 139.88 
Q 648.074229 143.38 648.076579 146.88 
Q 648.074229 150.38 648.071878 153.88 
L 648.071878 153.88 
Q 643.260678 153.88 638.449477 153.88 
L 638.449477 139.88 
z
" style="fill:#f7f7ef;stroke:#000000;stroke-linecap:round;"/>
   </g>
   <g id="matplotlib.axis_1">
    <g id="xtick_1">
     <g id="line2d_11">
      <defs>
       <path d="M 0 0 
L 0 3.5 
" id="ma9e182b381" style="stroke:#808080;stroke-width:0.8;"/>
      </defs>
      <g>
       <use style="fill:#808080;stroke:#808080;stroke-width:0.8;" x="111.967298" xlink:href="#ma9e182b381" y="192.24"/>
      </g>
     </g>
     <g id="text_1">
      <!-- 7,200 -->
      <g style="fill:#808080;" transform="translate(97.653235 206.838437)scale(0.1 -0.1)">
       <defs>
        <path d="M 8.203125 72.90625 
L 55.078125 72.90625 
L 55.078125 68.703125 
L 28.609375 0 
L 18.3125 0 
L 43.21875 64.59375 
L 8.203125 64.59375 
z
" id="DejaVuSans-55"/>
        <path d="M 11.71875 12.40625 
L 22.015625 12.40625 
L 22.015625 4 
L 14.015625 -11.625 
L 7.71875 -11.625 
L 11.71875 4 
z
" id="DejaVuSans-44"/>
        <path d="M 19.1875 8.296875 
L 53.609375 8.296875 
L 53.609375 0 
L 7.328125 0 
L 7.328125 8.296875 
Q 12.9375 14.109375 22.625 23.890625 
Q 32.328125 33.6875 34.8125 36.53125 
Q 39.546875 41.84375 41.421875 45.53125 
Q 43.3125 49.21875 43.3125 52.78125 
Q 43.3125 58.59375 39.234375 62.25 
Q 35.15625 65.921875 28.609375 65.921875 
Q 23.96875 65.921875 18.8125 64.3125 
Q 13.671875 62.703125 7.8125 59.421875 
L 7.8125 69.390625 
Q 13.765625 71.78125 18.9375 73 
Q 24.125 74.21875 28.421875 74.21875 
Q 39.75 74.21875 46.484375 68.546875 
Q 53.21875 62.890625 53.21875 53.421875 
Q 53.21875 48.921875 51.53125 44.890625 
Q 49.859375 40.875 45.40625 35.40625 
Q 44.1875 33.984375 37.640625 27.21875 
Q 31.109375 20.453125 19.1875 8.296875 
z
" id="DejaVuSans-50"/>
        <path d="M 31.78125 66.40625 
Q 24.171875 66.40625 20.328125 58.90625 
Q 16.5 51.421875 16.5 36.375 
Q 16.5 21.390625 20.328125 13.890625 
Q 24.171875 6.390625 31.78125 6.390625 
Q 39.453125 6.390625 43.28125 13.890625 
Q 47.125 21.390625 47.125 36.375 
Q 47.125 51.421875 43.28125 58.90625 
Q 39.453125 66.40625 31.78125 66.40625 
z
M 31.78125 74.21875 
Q 44.046875 74.21875 50.515625 64.515625 
Q 56.984375 54.828125 56.984375 36.375 
Q 56.984375 17.96875 50.515625 8.265625 
Q 44.046875 -1.421875 31.78125 -1.421875 
Q 19.53125 -1.421875 13.0625 8.265625 
Q 6.59375 17.96875 6.59375 36.375 
Q 6.59375 54.828125 13.0625 64.515625 
Q 19.53125 74.21875 31.78125 74.21875 
z
" id="DejaVuSans-48"/>
       </defs>
       <use xlink:href="#DejaVuSans-55"/>
       <use x="63.623047" xlink:href="#DejaVuSans-44"/>
       <use x="95.410156" xlink:href="#DejaVuSans-50"/>
       <use x="159.033203" xlink:href="#DejaVuSans-48"/>
       <use x="222.65625" xlink:href="#DejaVuSans-48"/>
      </g>
     </g>
    </g>
    <g id="xtick_2">
     <g id="line2d_12">
      <g>
       <use style="fill:#808080;stroke:#808080;stroke-width:0.8;" x="177.606635" xlink:href="#ma9e182b381" y="192.24"/>
      </g>
     </g>
     <g id="text_2">
      <!-- 7,800 -->
      <g style="fill:#808080;" transform="translate(163.292572 206.838437)scale(0.1 -0.1)">
       <defs>
        <path d="M 31.78125 34.625 
Q 24.75 34.625 20.71875 30.859375 
Q 16.703125 27.09375 16.703125 20.515625 
Q 16.703125 13.921875 20.71875 10.15625 
Q 24.75 6.390625 31.78125 6.390625 
Q 38.8125 6.390625 42.859375 10.171875 
Q 46.921875 13.96875 46.921875 20.515625 
Q 46.921875 27.09375 42.890625 30.859375 
Q 38.875 34.625 31.78125 34.625 
z
M 21.921875 38.8125 
Q 15.578125 40.375 12.03125 44.71875 
Q 8.5 49.078125 8.5 55.328125 
Q 8.5 64.0625 14.71875 69.140625 
Q 20.953125 74.21875 31.78125 74.21875 
Q 42.671875 74.21875 48.875 69.140625 
Q 55.078125 64.0625 55.078125 55.328125 
Q 55.078125 49.078125 51.53125 44.71875 
Q 48 40.375 41.703125 38.8125 
Q 48.828125 37.15625 52.796875 32.3125 
Q 56.78125 27.484375 56.78125 20.515625 
Q 56.78125 9.90625 50.3125 4.234375 
Q 43.84375 -1.421875 31.78125 -1.421875 
Q 19.734375 -1.421875 13.25 4.234375 
Q 6.78125 9.90625 6.78125 20.515625 
Q 6.78125 27.484375 10.78125 32.3125 
Q 14.796875 37.15625 21.921875 38.8125 
z
M 18.3125 54.390625 
Q 18.3125 48.734375 21.84375 45.5625 
Q 25.390625 42.390625 31.78125 42.390625 
Q 38.140625 42.390625 41.71875 45.5625 
Q 45.3125 48.734375 45.3125 54.390625 
Q 45.3125 60.0625 41.71875 63.234375 
Q 38.140625 66.40625 31.78125 66.40625 
Q 25.390625 66.40625 21.84375 63.234375 
Q 18.3125 60.0625 18.3125 54.390625 
z
" id="DejaVuSans-56"/>
       </defs>
       <use xlink:href="#DejaVuSans-55"/>
       <use x="63.623047" xlink:href="#DejaVuSans-44"/>
       <use x="95.410156" xlink:href="#DejaVuSans-56"/>
       <use x="159.033203" xlink:href="#DejaVuSans-48"/>
       <use x="222.65625" xlink:href="#DejaVuSans-48"/>
      </g>
     </g>
    </g>
    <g id="xtick_3">
     <g id="line2d_13">
      <g>
       <use style="fill:#808080;stroke:#808080;stroke-width:0.8;" x="243.245971" xlink:href="#ma9e182b381" y="192.24"/>
      </g>
     </g>
     <g id="text_3">
      <!-- 8,400 -->
      <g style="fill:#808080;" transform="translate(228.931909 206.838437)scale(0.1 -0.1)">
       <defs>
        <path d="M 37.796875 64.3125 
L 12.890625 25.390625 
L 37.796875 25.390625 
z
M 35.203125 72.90625 
L 47.609375 72.90625 
L 47.609375 25.390625 
L 58.015625 25.390625 
L 58.015625 17.1875 
L 47.609375 17.1875 
L 47.609375 0 
L 37.796875 0 
L 37.796875 17.1875 
L 4.890625 17.1875 
L 4.890625 26.703125 
z
" id="DejaVuSans-52"/>
       </defs>
       <use xlink:href="#DejaVuSans-56"/>
       <use x="63.623047" xlink:href="#DejaVuSans-44"/>
       <use x="95.410156" xlink:href="#DejaVuSans-52"/>
       <use x="159.033203" xlink:href="#DejaVuSans-48"/>
       <use x="222.65625" xlink:href="#DejaVuSans-48"/>
      </g>
     </g>
    </g>
    <g id="xtick_4">
     <g id="line2d_14">
      <g>
       <use style="fill:#808080;stroke:#808080;stroke-width:0.8;" x="308.885308" xlink:href="#ma9e182b381" y="192.24"/>
      </g>
     </g>
     <g id="text_4">
      <!-- 9,000 -->
      <g style="fill:#808080;" transform="translate(294.571245 206.838437)scale(0.1 -0.1)">
       <defs>
        <path d="M 10.984375 1.515625 
L 10.984375 10.5 
Q 14.703125 8.734375 18.5 7.8125 
Q 22.3125 6.890625 25.984375 6.890625 
Q 35.75 6.890625 40.890625 13.453125 
Q 46.046875 20.015625 46.78125 33.40625 
Q 43.953125 29.203125 39.59375 26.953125 
Q 35.25 24.703125 29.984375 24.703125 
Q 19.046875 24.703125 12.671875 31.3125 
Q 6.296875 37.9375 6.296875 49.421875 
Q 6.296875 60.640625 12.9375 67.421875 
Q 19.578125 74.21875 30.609375 74.21875 
Q 43.265625 74.21875 49.921875 64.515625 
Q 56.59375 54.828125 56.59375 36.375 
Q 56.59375 19.140625 48.40625 8.859375 
Q 40.234375 -1.421875 26.421875 -1.421875 
Q 22.703125 -1.421875 18.890625 -0.6875 
Q 15.09375 0.046875 10.984375 1.515625 
z
M 30.609375 32.421875 
Q 37.25 32.421875 41.125 36.953125 
Q 45.015625 41.5 45.015625 49.421875 
Q 45.015625 57.28125 41.125 61.84375 
Q 37.25 66.40625 30.609375 66.40625 
Q 23.96875 66.40625 20.09375 61.84375 
Q 16.21875 57.28125 16.21875 49.421875 
Q 16.21875 41.5 20.09375 36.953125 
Q 23.96875 32.421875 30.609375 32.421875 
z
" id="DejaVuSans-57"/>
       </defs>
       <use xlink:href="#DejaVuSans-57"/>
       <use x="63.623047" xlink:href="#DejaVuSans-44"/>
       <use x="95.410156" xlink:href="#DejaVuSans-48"/>
       <use x="159.033203" xlink:href="#DejaVuSans-48"/>
       <use x="222.65625" xlink:href="#DejaVuSans-48"/>
      </g>
     </g>
    </g>
    <g id="xtick_5">
     <g id="line2d_15">
      <g>
       <use style="fill:#808080;stroke:#808080;stroke-width:0.8;" x="374.524644" xlink:href="#ma9e182b381" y="192.24"/>
      </g>
     </g>
     <g id="text_5">
      <!-- 9,600 -->
      <g style="fill:#808080;" transform="translate(360.210582 206.838437)scale(0.1 -0.1)">
       <defs>
        <path d="M 33.015625 40.375 
Q 26.375 40.375 22.484375 35.828125 
Q 18.609375 31.296875 18.609375 23.390625 
Q 18.609375 15.53125 22.484375 10.953125 
Q 26.375 6.390625 33.015625 6.390625 
Q 39.65625 6.390625 43.53125 10.953125 
Q 47.40625 15.53125 47.40625 23.390625 
Q 47.40625 31.296875 43.53125 35.828125 
Q 39.65625 40.375 33.015625 40.375 
z
M 52.59375 71.296875 
L 52.59375 62.3125 
Q 48.875 64.0625 45.09375 64.984375 
Q 41.3125 65.921875 37.59375 65.921875 
Q 27.828125 65.921875 22.671875 59.328125 
Q 17.53125 52.734375 16.796875 39.40625 
Q 19.671875 43.65625 24.015625 45.921875 
Q 28.375 48.1875 33.59375 48.1875 
Q 44.578125 48.1875 50.953125 41.515625 
Q 57.328125 34.859375 57.328125 23.390625 
Q 57.328125 12.15625 50.6875 5.359375 
Q 44.046875 -1.421875 33.015625 -1.421875 
Q 20.359375 -1.421875 13.671875 8.265625 
Q 6.984375 17.96875 6.984375 36.375 
Q 6.984375 53.65625 15.1875 63.9375 
Q 23.390625 74.21875 37.203125 74.21875 
Q 40.921875 74.21875 44.703125 73.484375 
Q 48.484375 72.75 52.59375 71.296875 
z
" id="DejaVuSans-54"/>
       </defs>
       <use xlink:href="#DejaVuSans-57"/>
       <use x="63.623047" xlink:href="#DejaVuSans-44"/>
       <use x="95.410156" xlink:href="#DejaVuSans-54"/>
       <use x="159.033203" xlink:href="#DejaVuSans-48"/>
       <use x="222.65625" xlink:href="#DejaVuSans-48"/>
      </g>
     </g>
    </g>
    <g id="xtick_6">
     <g id="line2d_16">
      <g>
       <use style="fill:#808080;stroke:#808080;stroke-width:0.8;" x="440.163981" xlink:href="#ma9e182b381" y="192.24"/>
      </g>
     </g>
     <g id="text_6">
      <!-- 10,200 -->
      <g style="fill:#808080;" transform="translate(422.668668 206.838437)scale(0.1 -0.1)">
       <defs>
        <path d="M 12.40625 8.296875 
L 28.515625 8.296875 
L 28.515625 63.921875 
L 10.984375 60.40625 
L 10.984375 69.390625 
L 28.421875 72.90625 
L 38.28125 72.90625 
L 38.28125 8.296875 
L 54.390625 8.296875 
L 54.390625 0 
L 12.40625 0 
z
" id="DejaVuSans-49"/>
       </defs>
       <use xlink:href="#DejaVuSans-49"/>
       <use x="63.623047" xlink:href="#DejaVuSans-48"/>
       <use x="127.246094" xlink:href="#DejaVuSans-44"/>
       <use x="159.033203" xlink:href="#DejaVuSans-50"/>
       <use x="222.65625" xlink:href="#DejaVuSans-48"/>
       <use x="286.279297" xlink:href="#DejaVuSans-48"/>
      </g>
     </g>
    </g>
    <g id="xtick_7">
     <g id="line2d_17">
      <g>
       <use style="fill:#808080;stroke:#808080;stroke-width:0.8;" x="505.803317" xlink:href="#ma9e182b381" y="192.24"/>
      </g>
     </g>
     <g id="text_7">
      <!-- 10,800 -->
      <g style="fill:#808080;" transform="translate(488.308005 206.838437)scale(0.1 -0.1)">
       <use xlink:href="#DejaVuSans-49"/>
       <use x="63.623047" xlink:href="#DejaVuSans-48"/>
       <use x="127.246094" xlink:href="#DejaVuSans-44"/>
       <use x="159.033203" xlink:href="#DejaVuSans-56"/>
       <use x="222.65625" xlink:href="#DejaVuSans-48"/>
       <use x="286.279297" xlink:href="#DejaVuSans-48"/>
      </g>
     </g>
    </g>
    <g id="xtick_8">
     <g id="line2d_18">
      <g>
       <use style="fill:#808080;stroke:#808080;stroke-width:0.8;" x="571.442654" xlink:href="#ma9e182b381" y="192.24"/>
      </g>
     </g>
     <g id="text_8">
      <!-- 11,400 -->
      <g style="fill:#808080;" transform="translate(553.947341 206.838437)scale(0.1 -0.1)">
       <use xlink:href="#DejaVuSans-49"/>
       <use x="63.623047" xlink:href="#DejaVuSans-49"/>
       <use x="127.246094" xlink:href="#DejaVuSans-44"/>
       <use x="159.033203" xlink:href="#DejaVuSans-52"/>
       <use x="222.65625" xlink:href="#DejaVuSans-48"/>
       <use x="286.279297" xlink:href="#DejaVuSans-48"/>
      </g>
     </g>
    </g>
    <g id="xtick_9">
     <g id="line2d_19">
      <g>
       <use style="fill:#808080;stroke:#808080;stroke-width:0.8;" x="637.08199" xlink:href="#ma9e182b381" y="192.24"/>
      </g>
     </g>
     <g id="text_9">
      <!-- 12,000 -->
      <g style="fill:#808080;" transform="translate(619.586678 206.838437)scale(0.1 -0.1)">
       <use xlink:href="#DejaVuSans-49"/>
       <use x="63.623047" xlink:href="#DejaVuSans-50"/>
       <use x="127.246094" xlink:href="#DejaVuSans-44"/>
       <use x="159.033203" xlink:href="#DejaVuSans-48"/>
       <use x="222.65625" xlink:href="#DejaVuSans-48"/>
       <use x="286.279297" xlink:href="#DejaVuSans-48"/>
      </g>
     </g>
    </g>
   </g>
   <g id="text_10">
    <g id="patch_19">
     <path d="M 216.944633 95.022969 
L 293.068071 95.022969 
Q 296.368071 95.022969 296.368071 91.722969 
L 296.368071 81.077031 
Q 296.368071 77.777031 293.068071 77.777031 
L 216.944633 77.777031 
Q 213.644633 77.777031 213.644633 81.077031 
L 213.644633 91.722969 
Q 213.644633 95.022969 216.944633 95.022969 
z
" style="fill:#ffffff;"/>
    </g>
    <!-- protein GemA -->
    <g transform="translate(216.944633 89.435312)scale(0.11 -0.11)">
     <defs>
      <path d="M 18.109375 8.203125 
L 18.109375 -20.796875 
L 9.078125 -20.796875 
L 9.078125 54.6875 
L 18.109375 54.6875 
L 18.109375 46.390625 
Q 20.953125 51.265625 25.265625 53.625 
Q 29.59375 56 35.59375 56 
Q 45.5625 56 51.78125 48.09375 
Q 58.015625 40.1875 58.015625 27.296875 
Q 58.015625 14.40625 51.78125 6.484375 
Q 45.5625 -1.421875 35.59375 -1.421875 
Q 29.59375 -1.421875 25.265625 0.953125 
Q 20.953125 3.328125 18.109375 8.203125 
z
M 48.6875 27.296875 
Q 48.6875 37.203125 44.609375 42.84375 
Q 40.53125 48.484375 33.40625 48.484375 
Q 26.265625 48.484375 22.1875 42.84375 
Q 18.109375 37.203125 18.109375 27.296875 
Q 18.109375 17.390625 22.1875 11.75 
Q 26.265625 6.109375 33.40625 6.109375 
Q 40.53125 6.109375 44.609375 11.75 
Q 48.6875 17.390625 48.6875 27.296875 
z
" id="DejaVuSans-112"/>
      <path d="M 41.109375 46.296875 
Q 39.59375 47.171875 37.8125 47.578125 
Q 36.03125 48 33.890625 48 
Q 26.265625 48 22.1875 43.046875 
Q 18.109375 38.09375 18.109375 28.8125 
L 18.109375 0 
L 9.078125 0 
L 9.078125 54.6875 
L 18.109375 54.6875 
L 18.109375 46.1875 
Q 20.953125 51.171875 25.484375 53.578125 
Q 30.03125 56 36.53125 56 
Q 37.453125 56 38.578125 55.875 
Q 39.703125 55.765625 41.0625 55.515625 
z
" id="DejaVuSans-114"/>
      <path d="M 30.609375 48.390625 
Q 23.390625 48.390625 19.1875 42.75 
Q 14.984375 37.109375 14.984375 27.296875 
Q 14.984375 17.484375 19.15625 11.84375 
Q 23.34375 6.203125 30.609375 6.203125 
Q 37.796875 6.203125 41.984375 11.859375 
Q 46.1875 17.53125 46.1875 27.296875 
Q 46.1875 37.015625 41.984375 42.703125 
Q 37.796875 48.390625 30.609375 48.390625 
z
M 30.609375 56 
Q 42.328125 56 49.015625 48.375 
Q 55.71875 40.765625 55.71875 27.296875 
Q 55.71875 13.875 49.015625 6.21875 
Q 42.328125 -1.421875 30.609375 -1.421875 
Q 18.84375 -1.421875 12.171875 6.21875 
Q 5.515625 13.875 5.515625 27.296875 
Q 5.515625 40.765625 12.171875 48.375 
Q 18.84375 56 30.609375 56 
z
" id="DejaVuSans-111"/>
      <path d="M 18.3125 70.21875 
L 18.3125 54.6875 
L 36.8125 54.6875 
L 36.8125 47.703125 
L 18.3125 47.703125 
L 18.3125 18.015625 
Q 18.3125 11.328125 20.140625 9.421875 
Q 21.96875 7.515625 27.59375 7.515625 
L 36.8125 7.515625 
L 36.8125 0 
L 27.59375 0 
Q 17.1875 0 13.234375 3.875 
Q 9.28125 7.765625 9.28125 18.015625 
L 9.28125 47.703125 
L 2.6875 47.703125 
L 2.6875 54.6875 
L 9.28125 54.6875 
L 9.28125 70.21875 
z
" id="DejaVuSans-116"/>
      <path d="M 56.203125 29.59375 
L 56.203125 25.203125 
L 14.890625 25.203125 
Q 15.484375 15.921875 20.484375 11.0625 
Q 25.484375 6.203125 34.421875 6.203125 
Q 39.59375 6.203125 44.453125 7.46875 
Q 49.3125 8.734375 54.109375 11.28125 
L 54.109375 2.78125 
Q 49.265625 0.734375 44.1875 -0.34375 
Q 39.109375 -1.421875 33.890625 -1.421875 
Q 20.796875 -1.421875 13.15625 6.1875 
Q 5.515625 13.8125 5.515625 26.8125 
Q 5.515625 40.234375 12.765625 48.109375 
Q 20.015625 56 32.328125 56 
Q 43.359375 56 49.78125 48.890625 
Q 56.203125 41.796875 56.203125 29.59375 
z
M 47.21875 32.234375 
Q 47.125 39.59375 43.09375 43.984375 
Q 39.0625 48.390625 32.421875 48.390625 
Q 24.90625 48.390625 20.390625 44.140625 
Q 15.875 39.890625 15.1875 32.171875 
z
" id="DejaVuSans-101"/>
      <path d="M 9.421875 54.6875 
L 18.40625 54.6875 
L 18.40625 0 
L 9.421875 0 
z
M 9.421875 75.984375 
L 18.40625 75.984375 
L 18.40625 64.59375 
L 9.421875 64.59375 
z
" id="DejaVuSans-105"/>
      <path d="M 54.890625 33.015625 
L 54.890625 0 
L 45.90625 0 
L 45.90625 32.71875 
Q 45.90625 40.484375 42.875 44.328125 
Q 39.84375 48.1875 33.796875 48.1875 
Q 26.515625 48.1875 22.3125 43.546875 
Q 18.109375 38.921875 18.109375 30.90625 
L 18.109375 0 
L 9.078125 0 
L 9.078125 54.6875 
L 18.109375 54.6875 
L 18.109375 46.1875 
Q 21.34375 51.125 25.703125 53.5625 
Q 30.078125 56 35.796875 56 
Q 45.21875 56 50.046875 50.171875 
Q 54.890625 44.34375 54.890625 33.015625 
z
" id="DejaVuSans-110"/>
      <path id="DejaVuSans-32"/>
      <path d="M 59.515625 10.40625 
L 59.515625 29.984375 
L 43.40625 29.984375 
L 43.40625 38.09375 
L 69.28125 38.09375 
L 69.28125 6.78125 
Q 63.578125 2.734375 56.6875 0.65625 
Q 49.8125 -1.421875 42 -1.421875 
Q 24.90625 -1.421875 15.25 8.5625 
Q 5.609375 18.5625 5.609375 36.375 
Q 5.609375 54.25 15.25 64.234375 
Q 24.90625 74.21875 42 74.21875 
Q 49.125 74.21875 55.546875 72.453125 
Q 61.96875 70.703125 67.390625 67.28125 
L 67.390625 56.78125 
Q 61.921875 61.421875 55.765625 63.765625 
Q 49.609375 66.109375 42.828125 66.109375 
Q 29.4375 66.109375 22.71875 58.640625 
Q 16.015625 51.171875 16.015625 36.375 
Q 16.015625 21.625 22.71875 14.15625 
Q 29.4375 6.6875 42.828125 6.6875 
Q 48.046875 6.6875 52.140625 7.59375 
Q 56.25 8.5 59.515625 10.40625 
z
" id="DejaVuSans-71"/>
      <path d="M 52 44.1875 
Q 55.375 50.25 60.0625 53.125 
Q 64.75 56 71.09375 56 
Q 79.640625 56 84.28125 50.015625 
Q 88.921875 44.046875 88.921875 33.015625 
L 88.921875 0 
L 79.890625 0 
L 79.890625 32.71875 
Q 79.890625 40.578125 77.09375 44.375 
Q 74.3125 48.1875 68.609375 48.1875 
Q 61.625 48.1875 57.5625 43.546875 
Q 53.515625 38.921875 53.515625 30.90625 
L 53.515625 0 
L 44.484375 0 
L 44.484375 32.71875 
Q 44.484375 40.625 41.703125 44.40625 
Q 38.921875 48.1875 33.109375 48.1875 
Q 26.21875 48.1875 22.15625 43.53125 
Q 18.109375 38.875 18.109375 30.90625 
L 18.109375 0 
L 9.078125 0 
L 9.078125 54.6875 
L 18.109375 54.6875 
L 18.109375 46.1875 
Q 21.1875 51.21875 25.484375 53.609375 
Q 29.78125 56 35.6875 56 
Q 41.65625 56 45.828125 52.96875 
Q 50 49.953125 52 44.1875 
z
" id="DejaVuSans-109"/>
      <path d="M 34.1875 63.1875 
L 20.796875 26.90625 
L 47.609375 26.90625 
z
M 28.609375 72.90625 
L 39.796875 72.90625 
L 67.578125 0 
L 57.328125 0 
L 50.6875 18.703125 
L 17.828125 18.703125 
L 11.1875 0 
L 0.78125 0 
z
" id="DejaVuSans-65"/>
     </defs>
     <use xlink:href="#DejaVuSans-112"/>
     <use x="63.476562" xlink:href="#DejaVuSans-114"/>
     <use x="102.339844" xlink:href="#DejaVuSans-111"/>
     <use x="163.521484" xlink:href="#DejaVuSans-116"/>
     <use x="202.730469" xlink:href="#DejaVuSans-101"/>
     <use x="264.253906" xlink:href="#DejaVuSans-105"/>
     <use x="292.037109" xlink:href="#DejaVuSans-110"/>
     <use x="355.416016" xlink:href="#DejaVuSans-32"/>
     <use x="387.203125" xlink:href="#DejaVuSans-71"/>
     <use x="464.693359" xlink:href="#DejaVuSans-101"/>
     <use x="526.216797" xlink:href="#DejaVuSans-109"/>
     <use x="623.628906" xlink:href="#DejaVuSans-65"/>
    </g>
   </g>
   <g id="text_11">
    <g id="patch_20">
     <path d="M 459.376842 125.262969 
L 538.007936 125.262969 
Q 541.307936 125.262969 541.307936 121.962969 
L 541.307936 111.317031 
Q 541.307936 108.017031 538.007936 108.017031 
L 459.376842 108.017031 
Q 456.076842 108.017031 456.076842 111.317031 
L 456.076842 121.962969 
Q 456.076842 125.262969 459.376842 125.262969 
z
" style="fill:#ffffff;"/>
    </g>
    <!-- SAR endolysin -->
    <g transform="translate(459.376842 119.675312)scale(0.11 -0.11)">
     <defs>
      <path d="M 53.515625 70.515625 
L 53.515625 60.890625 
Q 47.90625 63.578125 42.921875 64.890625 
Q 37.9375 66.21875 33.296875 66.21875 
Q 25.25 66.21875 20.875 63.09375 
Q 16.5 59.96875 16.5 54.203125 
Q 16.5 49.359375 19.40625 46.890625 
Q 22.3125 44.4375 30.421875 42.921875 
L 36.375 41.703125 
Q 47.40625 39.59375 52.65625 34.296875 
Q 57.90625 29 57.90625 20.125 
Q 57.90625 9.515625 50.796875 4.046875 
Q 43.703125 -1.421875 29.984375 -1.421875 
Q 24.8125 -1.421875 18.96875 -0.25 
Q 13.140625 0.921875 6.890625 3.21875 
L 6.890625 13.375 
Q 12.890625 10.015625 18.65625 8.296875 
Q 24.421875 6.59375 29.984375 6.59375 
Q 38.421875 6.59375 43.015625 9.90625 
Q 47.609375 13.234375 47.609375 19.390625 
Q 47.609375 24.75 44.3125 27.78125 
Q 41.015625 30.8125 33.5 32.328125 
L 27.484375 33.5 
Q 16.453125 35.6875 11.515625 40.375 
Q 6.59375 45.0625 6.59375 53.421875 
Q 6.59375 63.09375 13.40625 68.65625 
Q 20.21875 74.21875 32.171875 74.21875 
Q 37.3125 74.21875 42.625 73.28125 
Q 47.953125 72.359375 53.515625 70.515625 
z
" id="DejaVuSans-83"/>
      <path d="M 44.390625 34.1875 
Q 47.5625 33.109375 50.5625 29.59375 
Q 53.5625 26.078125 56.59375 19.921875 
L 66.609375 0 
L 56 0 
L 46.6875 18.703125 
Q 43.0625 26.03125 39.671875 28.421875 
Q 36.28125 30.8125 30.421875 30.8125 
L 19.671875 30.8125 
L 19.671875 0 
L 9.8125 0 
L 9.8125 72.90625 
L 32.078125 72.90625 
Q 44.578125 72.90625 50.734375 67.671875 
Q 56.890625 62.453125 56.890625 51.90625 
Q 56.890625 45.015625 53.6875 40.46875 
Q 50.484375 35.9375 44.390625 34.1875 
z
M 19.671875 64.796875 
L 19.671875 38.921875 
L 32.078125 38.921875 
Q 39.203125 38.921875 42.84375 42.21875 
Q 46.484375 45.515625 46.484375 51.90625 
Q 46.484375 58.296875 42.84375 61.546875 
Q 39.203125 64.796875 32.078125 64.796875 
z
" id="DejaVuSans-82"/>
      <path d="M 45.40625 46.390625 
L 45.40625 75.984375 
L 54.390625 75.984375 
L 54.390625 0 
L 45.40625 0 
L 45.40625 8.203125 
Q 42.578125 3.328125 38.25 0.953125 
Q 33.9375 -1.421875 27.875 -1.421875 
Q 17.96875 -1.421875 11.734375 6.484375 
Q 5.515625 14.40625 5.515625 27.296875 
Q 5.515625 40.1875 11.734375 48.09375 
Q 17.96875 56 27.875 56 
Q 33.9375 56 38.25 53.625 
Q 42.578125 51.265625 45.40625 46.390625 
z
M 14.796875 27.296875 
Q 14.796875 17.390625 18.875 11.75 
Q 22.953125 6.109375 30.078125 6.109375 
Q 37.203125 6.109375 41.296875 11.75 
Q 45.40625 17.390625 45.40625 27.296875 
Q 45.40625 37.203125 41.296875 42.84375 
Q 37.203125 48.484375 30.078125 48.484375 
Q 22.953125 48.484375 18.875 42.84375 
Q 14.796875 37.203125 14.796875 27.296875 
z
" id="DejaVuSans-100"/>
      <path d="M 9.421875 75.984375 
L 18.40625 75.984375 
L 18.40625 0 
L 9.421875 0 
z
" id="DejaVuSans-108"/>
      <path d="M 32.171875 -5.078125 
Q 28.375 -14.84375 24.75 -17.8125 
Q 21.140625 -20.796875 15.09375 -20.796875 
L 7.90625 -20.796875 
L 7.90625 -13.28125 
L 13.1875 -13.28125 
Q 16.890625 -13.28125 18.9375 -11.515625 
Q 21 -9.765625 23.484375 -3.21875 
L 25.09375 0.875 
L 2.984375 54.6875 
L 12.5 54.6875 
L 29.59375 11.921875 
L 46.6875 54.6875 
L 56.203125 54.6875 
z
" id="DejaVuSans-121"/>
      <path d="M 44.28125 53.078125 
L 44.28125 44.578125 
Q 40.484375 46.53125 36.375 47.5 
Q 32.28125 48.484375 27.875 48.484375 
Q 21.1875 48.484375 17.84375 46.4375 
Q 14.5 44.390625 14.5 40.28125 
Q 14.5 37.15625 16.890625 35.375 
Q 19.28125 33.59375 26.515625 31.984375 
L 29.59375 31.296875 
Q 39.15625 29.25 43.1875 25.515625 
Q 47.21875 21.78125 47.21875 15.09375 
Q 47.21875 7.46875 41.1875 3.015625 
Q 35.15625 -1.421875 24.609375 -1.421875 
Q 20.21875 -1.421875 15.453125 -0.5625 
Q 10.6875 0.296875 5.421875 2 
L 5.421875 11.28125 
Q 10.40625 8.6875 15.234375 7.390625 
Q 20.0625 6.109375 24.8125 6.109375 
Q 31.15625 6.109375 34.5625 8.28125 
Q 37.984375 10.453125 37.984375 14.40625 
Q 37.984375 18.0625 35.515625 20.015625 
Q 33.0625 21.96875 24.703125 23.78125 
L 21.578125 24.515625 
Q 13.234375 26.265625 9.515625 29.90625 
Q 5.8125 33.546875 5.8125 39.890625 
Q 5.8125 47.609375 11.28125 51.796875 
Q 16.75 56 26.8125 56 
Q 31.78125 56 36.171875 55.265625 
Q 40.578125 54.546875 44.28125 53.078125 
z
" id="DejaVuSans-115"/>
     </defs>
     <use xlink:href="#DejaVuSans-83"/>
     <use x="65.351562" xlink:href="#DejaVuSans-65"/>
     <use x="133.759766" xlink:href="#DejaVuSans-82"/>
     <use x="203.242188" xlink:href="#DejaVuSans-32"/>
     <use x="235.029297" xlink:href="#DejaVuSans-101"/>
     <use x="296.552734" xlink:href="#DejaVuSans-110"/>
     <use x="359.931641" xlink:href="#DejaVuSans-100"/>
     <use x="423.408203" xlink:href="#DejaVuSans-111"/>
     <use x="484.589844" xlink:href="#DejaVuSans-108"/>
     <use x="512.373047" xlink:href="#DejaVuSans-121"/>
     <use x="571.552734" xlink:href="#DejaVuSans-115"/>
     <use x="623.652344" xlink:href="#DejaVuSans-105"/>
     <use x="651.435547" xlink:href="#DejaVuSans-110"/>
    </g>
   </g>
   <g id="text_12">
    <g id="patch_21">
     <path d="M 369.715757 155.502969 
L 504.704664 155.502969 
Q 508.004664 155.502969 508.004664 152.202969 
L 508.004664 141.557031 
Q 508.004664 138.257031 504.704664 138.257031 
L 369.715757 138.257031 
Q 366.415757 138.257031 366.415757 141.557031 
L 366.415757 152.202969 
Q 366.415757 155.502969 369.715757 155.502969 
z
" style="fill:#ffffff;"/>
    </g>
    <!-- transcription regulator C -->
    <g transform="translate(369.715757 149.915312)scale(0.11 -0.11)">
     <defs>
      <path d="M 34.28125 27.484375 
Q 23.390625 27.484375 19.1875 25 
Q 14.984375 22.515625 14.984375 16.5 
Q 14.984375 11.71875 18.140625 8.90625 
Q 21.296875 6.109375 26.703125 6.109375 
Q 34.1875 6.109375 38.703125 11.40625 
Q 43.21875 16.703125 43.21875 25.484375 
L 43.21875 27.484375 
z
M 52.203125 31.203125 
L 52.203125 0 
L 43.21875 0 
L 43.21875 8.296875 
Q 40.140625 3.328125 35.546875 0.953125 
Q 30.953125 -1.421875 24.3125 -1.421875 
Q 15.921875 -1.421875 10.953125 3.296875 
Q 6 8.015625 6 15.921875 
Q 6 25.140625 12.171875 29.828125 
Q 18.359375 34.515625 30.609375 34.515625 
L 43.21875 34.515625 
L 43.21875 35.40625 
Q 43.21875 41.609375 39.140625 45 
Q 35.0625 48.390625 27.6875 48.390625 
Q 23 48.390625 18.546875 47.265625 
Q 14.109375 46.140625 10.015625 43.890625 
L 10.015625 52.203125 
Q 14.9375 54.109375 19.578125 55.046875 
Q 24.21875 56 28.609375 56 
Q 40.484375 56 46.34375 49.84375 
Q 52.203125 43.703125 52.203125 31.203125 
z
" id="DejaVuSans-97"/>
      <path d="M 48.78125 52.59375 
L 48.78125 44.1875 
Q 44.96875 46.296875 41.140625 47.34375 
Q 37.3125 48.390625 33.40625 48.390625 
Q 24.65625 48.390625 19.8125 42.84375 
Q 14.984375 37.3125 14.984375 27.296875 
Q 14.984375 17.28125 19.8125 11.734375 
Q 24.65625 6.203125 33.40625 6.203125 
Q 37.3125 6.203125 41.140625 7.25 
Q 44.96875 8.296875 48.78125 10.40625 
L 48.78125 2.09375 
Q 45.015625 0.34375 40.984375 -0.53125 
Q 36.96875 -1.421875 32.421875 -1.421875 
Q 20.0625 -1.421875 12.78125 6.34375 
Q 5.515625 14.109375 5.515625 27.296875 
Q 5.515625 40.671875 12.859375 48.328125 
Q 20.21875 56 33.015625 56 
Q 37.15625 56 41.109375 55.140625 
Q 45.0625 54.296875 48.78125 52.59375 
z
" id="DejaVuSans-99"/>
      <path d="M 45.40625 27.984375 
Q 45.40625 37.75 41.375 43.109375 
Q 37.359375 48.484375 30.078125 48.484375 
Q 22.859375 48.484375 18.828125 43.109375 
Q 14.796875 37.75 14.796875 27.984375 
Q 14.796875 18.265625 18.828125 12.890625 
Q 22.859375 7.515625 30.078125 7.515625 
Q 37.359375 7.515625 41.375 12.890625 
Q 45.40625 18.265625 45.40625 27.984375 
z
M 54.390625 6.78125 
Q 54.390625 -7.171875 48.1875 -13.984375 
Q 42 -20.796875 29.203125 -20.796875 
Q 24.46875 -20.796875 20.265625 -20.09375 
Q 16.0625 -19.390625 12.109375 -17.921875 
L 12.109375 -9.1875 
Q 16.0625 -11.328125 19.921875 -12.34375 
Q 23.78125 -13.375 27.78125 -13.375 
Q 36.625 -13.375 41.015625 -8.765625 
Q 45.40625 -4.15625 45.40625 5.171875 
L 45.40625 9.625 
Q 42.625 4.78125 38.28125 2.390625 
Q 33.9375 0 27.875 0 
Q 17.828125 0 11.671875 7.65625 
Q 5.515625 15.328125 5.515625 27.984375 
Q 5.515625 40.671875 11.671875 48.328125 
Q 17.828125 56 27.875 56 
Q 33.9375 56 38.28125 53.609375 
Q 42.625 51.21875 45.40625 46.390625 
L 45.40625 54.6875 
L 54.390625 54.6875 
z
" id="DejaVuSans-103"/>
      <path d="M 8.5 21.578125 
L 8.5 54.6875 
L 17.484375 54.6875 
L 17.484375 21.921875 
Q 17.484375 14.15625 20.5 10.265625 
Q 23.53125 6.390625 29.59375 6.390625 
Q 36.859375 6.390625 41.078125 11.03125 
Q 45.3125 15.671875 45.3125 23.6875 
L 45.3125 54.6875 
L 54.296875 54.6875 
L 54.296875 0 
L 45.3125 0 
L 45.3125 8.40625 
Q 42.046875 3.421875 37.71875 1 
Q 33.40625 -1.421875 27.6875 -1.421875 
Q 18.265625 -1.421875 13.375 4.4375 
Q 8.5 10.296875 8.5 21.578125 
z
M 31.109375 56 
z
" id="DejaVuSans-117"/>
      <path d="M 64.40625 67.28125 
L 64.40625 56.890625 
Q 59.421875 61.53125 53.78125 63.8125 
Q 48.140625 66.109375 41.796875 66.109375 
Q 29.296875 66.109375 22.65625 58.46875 
Q 16.015625 50.828125 16.015625 36.375 
Q 16.015625 21.96875 22.65625 14.328125 
Q 29.296875 6.6875 41.796875 6.6875 
Q 48.140625 6.6875 53.78125 8.984375 
Q 59.421875 11.28125 64.40625 15.921875 
L 64.40625 5.609375 
Q 59.234375 2.09375 53.4375 0.328125 
Q 47.65625 -1.421875 41.21875 -1.421875 
Q 24.65625 -1.421875 15.125 8.703125 
Q 5.609375 18.84375 5.609375 36.375 
Q 5.609375 53.953125 15.125 64.078125 
Q 24.65625 74.21875 41.21875 74.21875 
Q 47.75 74.21875 53.53125 72.484375 
Q 59.328125 70.75 64.40625 67.28125 
z
" id="DejaVuSans-67"/>
     </defs>
     <use xlink:href="#DejaVuSans-116"/>
     <use x="39.208984" xlink:href="#DejaVuSans-114"/>
     <use x="80.322266" xlink:href="#DejaVuSans-97"/>
     <use x="141.601562" xlink:href="#DejaVuSans-110"/>
     <use x="204.980469" xlink:href="#DejaVuSans-115"/>
     <use x="257.080078" xlink:href="#DejaVuSans-99"/>
     <use x="312.060547" xlink:href="#DejaVuSans-114"/>
     <use x="353.173828" xlink:href="#DejaVuSans-105"/>
     <use x="380.957031" xlink:href="#DejaVuSans-112"/>
     <use x="444.433594" xlink:href="#DejaVuSans-116"/>
     <use x="483.642578" xlink:href="#DejaVuSans-105"/>
     <use x="511.425781" xlink:href="#DejaVuSans-111"/>
     <use x="572.607422" xlink:href="#DejaVuSans-110"/>
     <use x="635.986328" xlink:href="#DejaVuSans-32"/>
     <use x="667.773438" xlink:href="#DejaVuSans-114"/>
     <use x="706.636719" xlink:href="#DejaVuSans-101"/>
     <use x="768.160156" xlink:href="#DejaVuSans-103"/>
     <use x="831.636719" xlink:href="#DejaVuSans-117"/>
     <use x="895.015625" xlink:href="#DejaVuSans-108"/>
     <use x="922.798828" xlink:href="#DejaVuSans-97"/>
     <use x="984.078125" xlink:href="#DejaVuSans-116"/>
     <use x="1023.287109" xlink:href="#DejaVuSans-111"/>
     <use x="1084.46875" xlink:href="#DejaVuSans-114"/>
     <use x="1125.582031" xlink:href="#DejaVuSans-32"/>
     <use x="1157.369141" xlink:href="#DejaVuSans-67"/>
    </g>
   </g>
   <g id="text_13">
    <g id="patch_22">
     <path d="M 227.290089 125.262969 
L 384.901183 125.262969 
Q 388.201183 125.262969 388.201183 121.962969 
L 388.201183 111.317031 
Q 388.201183 108.017031 384.901183 108.017031 
L 227.290089 108.017031 
Q 223.990089 108.017031 223.990089 111.317031 
L 223.990089 121.962969 
Q 223.990089 125.262969 227.290089 125.262969 
z
" style="fill:#ffffff;"/>
    </g>
    <!-- middle operon regulator Mor -->
    <g transform="translate(227.290089 119.675312)scale(0.11 -0.11)">
     <defs>
      <path d="M 9.8125 72.90625 
L 24.515625 72.90625 
L 43.109375 23.296875 
L 61.8125 72.90625 
L 76.515625 72.90625 
L 76.515625 0 
L 66.890625 0 
L 66.890625 64.015625 
L 48.09375 14.015625 
L 38.1875 14.015625 
L 19.390625 64.015625 
L 19.390625 0 
L 9.8125 0 
z
" id="DejaVuSans-77"/>
     </defs>
     <use xlink:href="#DejaVuSans-109"/>
     <use x="97.412109" xlink:href="#DejaVuSans-105"/>
     <use x="125.195312" xlink:href="#DejaVuSans-100"/>
     <use x="188.671875" xlink:href="#DejaVuSans-100"/>
     <use x="252.148438" xlink:href="#DejaVuSans-108"/>
     <use x="279.931641" xlink:href="#DejaVuSans-101"/>
     <use x="341.455078" xlink:href="#DejaVuSans-32"/>
     <use x="373.242188" xlink:href="#DejaVuSans-111"/>
     <use x="434.423828" xlink:href="#DejaVuSans-112"/>
     <use x="497.900391" xlink:href="#DejaVuSans-101"/>
     <use x="559.423828" xlink:href="#DejaVuSans-114"/>
     <use x="598.287109" xlink:href="#DejaVuSans-111"/>
     <use x="659.46875" xlink:href="#DejaVuSans-110"/>
     <use x="722.847656" xlink:href="#DejaVuSans-32"/>
     <use x="754.634766" xlink:href="#DejaVuSans-114"/>
     <use x="793.498047" xlink:href="#DejaVuSans-101"/>
     <use x="855.021484" xlink:href="#DejaVuSans-103"/>
     <use x="918.498047" xlink:href="#DejaVuSans-117"/>
     <use x="981.876953" xlink:href="#DejaVuSans-108"/>
     <use x="1009.660156" xlink:href="#DejaVuSans-97"/>
     <use x="1070.939453" xlink:href="#DejaVuSans-116"/>
     <use x="1110.148438" xlink:href="#DejaVuSans-111"/>
     <use x="1171.330078" xlink:href="#DejaVuSans-114"/>
     <use x="1212.443359" xlink:href="#DejaVuSans-32"/>
     <use x="1244.230469" xlink:href="#DejaVuSans-77"/>
     <use x="1330.509766" xlink:href="#DejaVuSans-111"/>
     <use x="1391.691406" xlink:href="#DejaVuSans-114"/>
    </g>
   </g>
   <g id="text_14">
    <g id="patch_23">
     <path d="M 524.651557 64.782969 
L 568.129057 64.782969 
Q 571.429057 64.782969 571.429057 61.482969 
L 571.429057 50.837031 
Q 571.429057 47.537031 568.129057 47.537031 
L 524.651557 47.537031 
Q 521.351557 47.537031 521.351557 50.837031 
L 521.351557 61.482969 
Q 521.351557 64.782969 524.651557 64.782969 
z
" style="fill:#ffffff;"/>
    </g>
    <!-- i-spanin -->
    <g transform="translate(524.651557 59.195312)scale(0.11 -0.11)">
     <defs>
      <path d="M 4.890625 31.390625 
L 31.203125 31.390625 
L 31.203125 23.390625 
L 4.890625 23.390625 
z
" id="DejaVuSans-45"/>
     </defs>
     <use xlink:href="#DejaVuSans-105"/>
     <use x="27.783203" xlink:href="#DejaVuSans-45"/>
     <use x="63.867188" xlink:href="#DejaVuSans-115"/>
     <use x="115.966797" xlink:href="#DejaVuSans-112"/>
     <use x="179.443359" xlink:href="#DejaVuSans-97"/>
     <use x="240.722656" xlink:href="#DejaVuSans-110"/>
     <use x="304.101562" xlink:href="#DejaVuSans-105"/>
     <use x="331.884766" xlink:href="#DejaVuSans-110"/>
    </g>
   </g>
   <g id="text_15">
    <g id="patch_24">
     <path d="M 356.893467 64.782969 
L 400.688935 64.782969 
Q 403.988935 64.782969 403.988935 61.482969 
L 403.988935 50.837031 
Q 403.988935 47.537031 400.688935 47.537031 
L 356.893467 47.537031 
Q 353.593467 47.537031 353.593467 50.837031 
L 353.593467 61.482969 
Q 353.593467 64.782969 356.893467 64.782969 
z
" style="fill:#ffffff;"/>
    </g>
    <!-- pinholin -->
    <g transform="translate(356.893467 59.195312)scale(0.11 -0.11)">
     <defs>
      <path d="M 54.890625 33.015625 
L 54.890625 0 
L 45.90625 0 
L 45.90625 32.71875 
Q 45.90625 40.484375 42.875 44.328125 
Q 39.84375 48.1875 33.796875 48.1875 
Q 26.515625 48.1875 22.3125 43.546875 
Q 18.109375 38.921875 18.109375 30.90625 
L 18.109375 0 
L 9.078125 0 
L 9.078125 75.984375 
L 18.109375 75.984375 
L 18.109375 46.1875 
Q 21.34375 51.125 25.703125 53.5625 
Q 30.078125 56 35.796875 56 
Q 45.21875 56 50.046875 50.171875 
Q 54.890625 44.34375 54.890625 33.015625 
z
" id="DejaVuSans-104"/>
     </defs>
     <use xlink:href="#DejaVuSans-112"/>
     <use x="63.476562" xlink:href="#DejaVuSans-105"/>
     <use x="91.259766" xlink:href="#DejaVuSans-110"/>
     <use x="154.638672" xlink:href="#DejaVuSans-104"/>
     <use x="218.017578" xlink:href="#DejaVuSans-111"/>
     <use x="279.199219" xlink:href="#DejaVuSans-108"/>
     <use x="306.982422" xlink:href="#DejaVuSans-105"/>
     <use x="334.765625" xlink:href="#DejaVuSans-110"/>
    </g>
   </g>
   <g id="text_16">
    <g id="patch_25">
     <path d="M 547.27114 95.022969 
L 594.629578 95.022969 
Q 597.929578 95.022969 597.929578 91.722969 
L 597.929578 81.077031 
Q 597.929578 77.777031 594.629578 77.777031 
L 547.27114 77.777031 
Q 543.97114 77.777031 543.97114 81.077031 
L 543.97114 91.722969 
Q 543.97114 95.022969 547.27114 95.022969 
z
" style="fill:#ffffff;"/>
    </g>
    <!-- o-spanin -->
    <g transform="translate(547.27114 89.435312)scale(0.11 -0.11)">
     <use xlink:href="#DejaVuSans-111"/>
     <use x="63.056641" xlink:href="#DejaVuSans-45"/>
     <use x="99.140625" xlink:href="#DejaVuSans-115"/>
     <use x="151.240234" xlink:href="#DejaVuSans-112"/>
     <use x="214.716797" xlink:href="#DejaVuSans-97"/>
     <use x="275.996094" xlink:href="#DejaVuSans-110"/>
     <use x="339.375" xlink:href="#DejaVuSans-105"/>
     <use x="367.158203" xlink:href="#DejaVuSans-110"/>
    </g>
   </g>
   <g id="text_17">
    <g id="patch_26">
     <path d="M 600.794347 125.262969 
L 644.160129 125.262969 
Q 647.460129 125.262969 647.460129 121.962969 
L 647.460129 111.317031 
Q 647.460129 108.017031 644.160129 108.017031 
L 600.794347 108.017031 
Q 597.494347 108.017031 597.494347 111.317031 
L 597.494347 121.962969 
Q 597.494347 125.262969 600.794347 125.262969 
z
" style="fill:#ffffff;"/>
    </g>
    <!-- releasin -->
    <g transform="translate(600.794347 119.675312)scale(0.11 -0.11)">
     <use xlink:href="#DejaVuSans-114"/>
     <use x="38.863281" xlink:href="#DejaVuSans-101"/>
     <use x="100.386719" xlink:href="#DejaVuSans-108"/>
     <use x="128.169922" xlink:href="#DejaVuSans-101"/>
     <use x="189.693359" xlink:href="#DejaVuSans-97"/>
     <use x="250.972656" xlink:href="#DejaVuSans-115"/>
     <use x="303.072266" xlink:href="#DejaVuSans-105"/>
     <use x="330.855469" xlink:href="#DejaVuSans-110"/>
    </g>
   </g>
   <g id="text_18">
    <g id="patch_27">
     <path d="M 382.26289 95.022969 
L 430.128358 95.022969 
Q 433.428358 95.022969 433.428358 91.722969 
L 433.428358 81.077031 
Q 433.428358 77.777031 430.128358 77.777031 
L 382.26289 77.777031 
Q 378.96289 77.777031 378.96289 81.077031 
L 378.96289 91.722969 
Q 378.96289 95.022969 382.26289 95.022969 
z
" style="fill:#ffffff;"/>
    </g>
    <!-- antiholin -->
    <g transform="translate(382.26289 89.435312)scale(0.11 -0.11)">
     <use xlink:href="#DejaVuSans-97"/>
     <use x="61.279297" xlink:href="#DejaVuSans-110"/>
     <use x="124.658203" xlink:href="#DejaVuSans-116"/>
     <use x="163.867188" xlink:href="#DejaVuSans-105"/>
     <use x="191.650391" xlink:href="#DejaVuSans-104"/>
     <use x="255.029297" xlink:href="#DejaVuSans-111"/>
     <use x="316.210938" xlink:href="#DejaVuSans-108"/>
     <use x="343.994141" xlink:href="#DejaVuSans-105"/>
     <use x="371.777344" xlink:href="#DejaVuSans-110"/>
    </g>
   </g>
  </g>
 </g>
 <defs>
  <clipPath id="p51a04b3d0b">
   <rect height="166.32" width="558" x="90" y="25.92"/>
  </clipPath>
 </defs>
</svg>
